<svg xmlns="http://www.w3.org/2000/svg" width="47.404" height="29.627" viewBox="0 0 47.404 29.627">
  <g id="hand-shake" transform="translate(0.001 -96.004)" opacity="0.5">
    <g id="Group_2" data-name="Group 2" transform="translate(6.911 98.101)">
      <g id="Group_1" data-name="Group 1" transform="translate(0 0)">
        <path id="Path_8" data-name="Path 8" d="M105.161,136.875c-.93-1.94-4.259-4.632-7.474-7.233-1.794-1.45-3.488-2.821-4.569-3.9a.987.987,0,0,0-1.033-.231c-.666.241-1.077.427-1.4.571a3.266,3.266,0,0,1-1.325.363.987.987,0,0,0-.723.433c-1.4,2.088-2.842,1.91-3.808,1.586-.308-.1-.363-.235-.393-.361-.207-.867.834-2.886,2.183-4.235,3.21-3.212,4.865-4.016,8.361-2.453,3.966,1.774,7.94,3.162,7.98,3.176a.988.988,0,0,0,.65-1.867c-.04-.014-3.935-1.375-7.822-3.115-4.529-2.025-7.014-.691-10.563,2.86-1.351,1.351-3.186,4.085-2.712,6.09a2.443,2.443,0,0,0,1.7,1.78,4.942,4.942,0,0,0,5.8-1.987,4.986,4.986,0,0,0,1.483-.47c.186-.083.4-.18.691-.3,1.13,1.061,2.655,2.3,4.26,3.593,2.9,2.348,6.2,5.011,6.937,6.552a1.157,1.157,0,0,1-.294,1.483,1.088,1.088,0,0,1-1.217.239.987.987,0,0,0-1.543.918,1.193,1.193,0,0,1-.757,1.112,1.516,1.516,0,0,1-1.539.036.987.987,0,0,0-1.657.63,1.877,1.877,0,0,1-1.165,1.513,1.041,1.041,0,0,1-1.134-.176,1,1,0,0,0-.9-.229.986.986,0,0,0-.693.622c-.037.1-.122.336-1.047.336a5.687,5.687,0,0,1-2.42-.828c-.693-.456-5.041-3.7-8.8-6.844-.527-.444-1.44-1.4-2.246-2.238-.715-.747-1.369-1.424-1.7-1.709a.988.988,0,0,0-1.276,1.509c.306.259.9.885,1.552,1.566.881.92,1.791,1.872,2.4,2.386,3.678,3.079,8.1,6.4,8.979,6.982a7.577,7.577,0,0,0,3.506,1.15,3.4,3.4,0,0,0,2.242-.66,3.074,3.074,0,0,0,2.246-.024,3.89,3.89,0,0,0,2.056-1.9,3.819,3.819,0,0,0,2.479-.357,3.351,3.351,0,0,0,1.649-1.722,3.23,3.23,0,0,0,2.266-.812A3.14,3.14,0,0,0,105.161,136.875Z" transform="translate(-74.642 -118.658)"/>
      </g>
    </g>
    <g id="Group_4" data-name="Group 4" transform="translate(9.876 99.953)">
      <g id="Group_3" data-name="Group 3" transform="translate(0 0)">
        <path id="Path_9" data-name="Path 9" d="M116.542,138.663h-8.888a.988.988,0,1,0,0,1.975h8.888a.988.988,0,1,0,0-1.975Z" transform="translate(-106.666 -138.663)"/>
      </g>
    </g>
    <g id="Group_6" data-name="Group 6" transform="translate(35.629 113.778)">
      <g id="Group_5" data-name="Group 5">
        <path id="Path_10" data-name="Path 10" d="M389.506,288.416a.985.985,0,0,0-1.371-.269l-2.888,1.94a.988.988,0,0,0,1.1,1.639l2.888-1.94A.988.988,0,0,0,389.506,288.416Z" transform="translate(-384.811 -287.977)"/>
      </g>
    </g>
    <g id="Group_8" data-name="Group 8" transform="translate(26.667 112.791)">
      <g id="Group_7" data-name="Group 7" transform="translate(0 0)">
        <path id="Path_11" data-name="Path 11" d="M295.542,283.456c-.707-.557-3.869-3.794-5.825-5.833a.988.988,0,0,0-1.426,1.367c.508.529,4.985,5.2,6.026,6.018a.984.984,0,0,0,.61.211,1,1,0,0,0,.778-.377A.987.987,0,0,0,295.542,283.456Z" transform="translate(-288.016 -277.317)"/>
      </g>
    </g>
    <g id="Group_10" data-name="Group 10" transform="translate(23.703 115.755)">
      <g id="Group_9" data-name="Group 9" transform="translate(0 0)">
        <path id="Path_12" data-name="Path 12" d="M262.548,314.492c-1.183-.946-4.156-4.1-4.827-4.835a.988.988,0,1,0-1.456,1.337c.036.038,3.583,3.867,5.049,5.041a.988.988,0,0,0,1.235-1.543Z" transform="translate(-256.005 -309.337)"/>
      </g>
    </g>
    <g id="Group_12" data-name="Group 12" transform="translate(19.753 117.728)">
      <g id="Group_11" data-name="Group 11" transform="translate(0 0)">
        <path id="Path_13" data-name="Path 13" d="M219.906,335.815c-1.408-1.187-4.29-4.255-4.853-4.857a.988.988,0,1,0-1.444,1.349c.81.867,3.567,3.79,5.023,5.019a.988.988,0,0,0,1.274-1.511Z" transform="translate(-213.343 -330.644)"/>
      </g>
    </g>
    <g id="Group_14" data-name="Group 14" transform="translate(0 96.003)">
      <g id="Group_13" data-name="Group 13" transform="translate(0 0)">
        <path id="Path_14" data-name="Path 14" d="M11.543,98.249C9.85,96.645,3.081,96.125,1.047,96A.987.987,0,0,0,0,96.99v17.777a.988.988,0,0,0,.988.988H6.913a.987.987,0,0,0,.938-.681c.144-.442,3.547-10.887,4-16.023A.983.983,0,0,0,11.543,98.249ZM6.192,113.78H1.975V98.049c3.174.251,6.6.8,7.844,1.4C9.3,103.775,6.927,111.461,6.192,113.78Z" transform="translate(0 -96.003)"/>
      </g>
    </g>
    <g id="Group_16" data-name="Group 16" transform="translate(33.613 97.978)">
      <g id="Group_15" data-name="Group 15" transform="translate(0 0)">
        <path id="Path_15" data-name="Path 15" d="M375.85,117.33c-7.755,0-12.057,1.985-12.236,2.068a.982.982,0,0,0-.527.614,1,1,0,0,0,.109.8c1.221,1.965,5.043,12.88,5.777,15.543a.987.987,0,0,0,.952.725h5.926a.988.988,0,0,0,.988-.988V118.318A.987.987,0,0,0,375.85,117.33Zm-.988,17.777h-4.2c-.936-3.05-3.7-11-5.244-14.288a32.166,32.166,0,0,1,9.443-1.5Z" transform="translate(-363.046 -117.33)"/>
      </g>
    </g>
  </g>
</svg>
