<svg xmlns="http://www.w3.org/2000/svg" width="34.889" height="34.889" viewBox="0 0 34.889 34.889">
  <g id="settings" transform="translate(0.999 1)" opacity="0.5">
    <circle id="Ellipse_5" data-name="Ellipse 5" cx="4.485" cy="4.485" r="4.485" transform="translate(11.96 11.96)" stroke-width="2" stroke="#000" stroke-linecap="round" stroke-linejoin="round" fill="none"/>
    <path id="Path_4" data-name="Path 4" d="M28.507,21.929A2.467,2.467,0,0,0,29,24.65l.09.09a2.992,2.992,0,1,1-4.231,4.231l-.09-.09a2.487,2.487,0,0,0-4.216,1.764V30.9a2.99,2.99,0,0,1-5.98,0v-.135a2.467,2.467,0,0,0-1.615-2.257A2.467,2.467,0,0,0,10.239,29l-.09.09A2.992,2.992,0,1,1,5.918,24.86l.09-.09a2.487,2.487,0,0,0-1.764-4.216H3.99a2.99,2.99,0,0,1,0-5.98h.135A2.467,2.467,0,0,0,6.382,12.96a2.467,2.467,0,0,0-.493-2.721l-.09-.09A2.992,2.992,0,1,1,10.03,5.918l.09.09A2.467,2.467,0,0,0,12.84,6.5h.12a2.467,2.467,0,0,0,1.495-2.257V3.99a2.99,2.99,0,0,1,5.98,0v.135A2.487,2.487,0,0,0,24.65,5.889l.09-.09a2.992,2.992,0,1,1,4.231,4.231l-.09.09a2.467,2.467,0,0,0-.493,2.721v.12a2.467,2.467,0,0,0,2.257,1.495H30.9a2.99,2.99,0,0,1,0,5.98h-.135A2.467,2.467,0,0,0,28.507,21.929Z" transform="translate(-1 -1)" fill="none" stroke="#000" stroke-linecap="round" stroke-linejoin="round" stroke-width="2"/>
  </g>
</svg>
